<svg xmlns="http://www.w3.org/2000/svg" viewBox="0 0 102.04 109.31"><defs><style>.cls-1{fill:#0083ff;}</style></defs><g id="Layer_2" data-name="Layer 2"><g id="Layer_1-2" data-name="Layer 1"><path class="cls-1" d="M57.63,60.44,48.05,46.16a1.7,1.7,0,0,1,.53-2.39c24.59-15,57,5.37,53.15,34.76C97.5,110.34,57,120.24,38.38,95.14a1.7,1.7,0,0,1,.42-2.41l13.36-9c1.67-1.12,2.63-1,3.19-.33C67.11,97.37,89.05,82,78.93,65.81h0C75.08,59.68,66.15,57.57,59.85,61A1.7,1.7,0,0,1,57.63,60.44Z"/><path class="cls-1" d="M48.91,26l14.28-9.57a1.7,1.7,0,0,0,.42-2.41C46.53-9.12,8.87-2.6,1.24,26c-8.15,31,25.54,55.55,52.31,39.41a1.69,1.69,0,0,0,.53-2.39l-9-13.36C44,48,43.06,47.78,42.3,48.18c-16.18,8.43-30.65-14.1-15.14-25.26h0c5.89-4.21,15-2.78,19.49,2.77A1.69,1.69,0,0,0,48.91,26Z"/></g></g></svg>